<svg xmlns="http://www.w3.org/2000/svg" width="1200" height="500" viewBox="0 0 1200 500"><defs><linearGradient id="g" x1="0" y1="0" x2="1" y2="1"><stop stop-color="#e11d48"/><stop offset="1" stop-color="#c026d3"/></linearGradient><filter id="s"><feDropShadow dx="0" dy="14" stdDeviation="18" flood-opacity=".22"/></filter></defs><rect width="1200" height="500" fill="url(#g)"/><circle cx="1100" cy="-20" r="250" fill="#fff" opacity=".08"/><circle cx="1020" cy="500" r="260" fill="#fff" opacity=".06"/><path d="M0 410C260 320 450 480 690 370S990 310 1200 380V500H0Z" fill="#fff" opacity=".08"/><g filter="url(#s)"><g opacity=".92" fill="none" stroke="#fff" stroke-width="9"><rect x="760" y="130" width="350" height="230" rx="24"/><circle cx="935" cy="245" r="62"/><path d="M910 215h40c32 0 32 45 0 45h-30c-32 0-32 45 0 45h45M935 185v120"/></g></g><text x="70" y="220" fill="#fff" font-size="58" font-family="Arial, sans-serif" font-weight="700">Payment Management</text><text x="72" y="270" fill="#fff" opacity=".88" font-size="23" font-family="Arial, sans-serif">Rent collection and balances</text></svg>